<svg width="24" height="24" viewBox="0 0 24 24" fill="none" xmlns="http://www.w3.org/2000/svg">
<path fill-rule="evenodd" clip-rule="evenodd" d="M23 12C23 18.0751 18.0751 23 12 23C5.92493 23 1 18.0751 1 12C1 5.92487 5.92493 1 12 1C18.0751 1 23 5.92487 23 12ZM24 12C24 18.6274 18.6274 24 12 24C5.37256 24 0 18.6274 0 12C0 5.37258 5.37256 0 12 0C18.6274 0 24 5.37258 24 12ZM11.7625 6.39201L8.30554 9.47757C8.09351 9.66691 8.09351 9.9739 8.30554 10.1632C8.5177 10.3526 8.86157 10.3526 9.07373 10.1632L11.6033 7.90538V17.25H12.6897V7.90538L15.2192 10.1632C15.4313 10.3526 15.7753 10.3526 15.9874 10.1632C16.1995 9.9739 16.1995 9.66691 15.9874 9.47757L12.5305 6.39201C12.3185 6.20266 11.9745 6.20266 11.7625 6.39201Z" fill="black"/>
</svg>
