<svg width="465" height="144" viewBox="0 0 465 144" fill="none" xmlns="http://www.w3.org/2000/svg">
<path d="M61.4773 25C59.5341 14.2614 50.9432 7.92045 40.4091 7.92045C27.0114 7.92045 17.2955 18.25 17.2955 34.8182C17.2955 51.3864 27.0114 61.7159 40.4091 61.7159C50.9432 61.7159 59.5341 55.375 61.4773 44.6364H55.1364C53.6023 51.8977 47.3636 55.7841 40.4091 55.7841C30.8977 55.7841 23.4318 48.4205 23.4318 34.8182C23.4318 21.2159 30.8977 13.8523 40.4091 13.8523C47.3636 13.8523 53.6023 17.7386 55.1364 25H61.4773ZM115.906 34.8182C115.906 18.25 106.19 7.92045 92.7919 7.92045C79.3942 7.92045 69.6783 18.25 69.6783 34.8182C69.6783 51.3864 79.3942 61.7159 92.7919 61.7159C106.19 61.7159 115.906 51.3864 115.906 34.8182ZM109.769 34.8182C109.769 48.4205 102.303 55.7841 92.7919 55.7841C83.2805 55.7841 75.8146 48.4205 75.8146 34.8182C75.8146 21.2159 83.2805 13.8523 92.7919 13.8523C102.303 13.8523 109.769 21.2159 109.769 34.8182ZM168.09 8.63636H161.852V49.8523H161.34L132.704 8.63636H126.567V61H132.908V19.8864H133.42L161.954 61H168.09V8.63636ZM177.915 14.2614H194.381V61H200.722V14.2614H217.188V8.63636H177.915V14.2614ZM233.315 8.63636H226.974V61H233.315V8.63636ZM287.551 8.63636H281.312V49.8523H280.801L252.165 8.63636H246.028V61H252.369V19.8864H252.881L281.415 61H287.551V8.63636ZM334.603 8.63636V42.7955C334.603 50.4659 329.336 55.9886 320.592 55.9886C311.847 55.9886 306.58 50.4659 306.58 42.7955V8.63636H300.239V43.3068C300.239 54.0455 308.268 61.9205 320.592 61.9205C332.915 61.9205 340.944 54.0455 340.944 43.3068V8.63636H334.603ZM387.97 8.63636V42.7955C387.97 50.4659 382.703 55.9886 373.959 55.9886C365.214 55.9886 359.947 50.4659 359.947 42.7955V8.63636H353.607V43.3068C353.607 54.0455 361.635 61.9205 373.959 61.9205C386.283 61.9205 394.311 54.0455 394.311 43.3068V8.63636H387.97ZM406.974 8.63636V61H412.906V21.2159H413.417L429.781 61H435.508L451.871 21.2159H452.383V61H458.315V8.63636H450.746L432.951 52.1023H432.337L414.542 8.63636H406.974ZM8.392 130.28H0.471999L0.0399995 131H49.72L50.152 130.28H42.232L70.096 82.04H78.088L78.52 81.32H28.768L28.336 82.04H36.256L8.392 130.28ZM20.416 123.224L44.176 82.04H62.176L59.656 86.432L20.416 123.224ZM34.312 130.28H16.312L18.832 125.888L58.072 89.096L34.312 130.28ZM79.9218 131C78.1218 131 76.3218 130.784 74.5218 130.28C72.7218 129.776 71.2098 128.912 69.9138 127.616C68.6178 126.32 67.7538 124.592 67.2498 122.36C66.7458 120.128 66.8898 117.248 67.6818 113.72L68.2578 111.272L56.8817 131H57.9617L60.9857 125.672C62.0657 126.896 63.3617 127.904 64.9457 128.696C66.5298 129.488 68.1858 130.136 69.9138 130.568C71.6418 131 73.3698 131.288 75.0977 131.432C76.8258 131.576 78.3378 131.648 79.6338 131.648C82.4418 131.648 85.1058 131.36 87.6978 130.712C90.2898 130.064 92.5938 129.128 94.6098 127.904C96.6258 126.68 98.2098 125.168 99.3618 123.368C100.514 121.568 101.09 119.552 101.09 117.248C101.09 114.296 99.8658 111.848 97.4178 109.904C94.9698 107.96 91.0818 106.592 85.8258 105.8C89.3538 105.512 92.5218 104.936 95.2578 104.072C97.9938 103.208 100.298 102.128 102.242 100.76C104.186 99.392 105.626 97.808 106.634 96.008C107.642 94.208 108.146 92.264 108.146 90.176C108.146 88.52 107.786 87.08 107.066 85.856C106.346 84.632 105.338 83.624 104.042 82.832C102.746 82.04 101.234 81.464 99.5058 81.104C97.7778 80.744 95.8338 80.528 93.7458 80.528C92.7378 80.528 91.5858 80.6 90.3618 80.744C89.1378 80.888 87.8418 81.248 86.5458 81.752C85.2498 82.256 83.9538 83.048 82.7298 84.128C81.5058 85.208 80.4258 86.648 79.4898 88.448C78.5538 90.248 77.7618 92.48 77.1138 95.144C76.4658 97.808 76.1058 101.048 76.0338 104.864H71.1378L70.7058 105.584H80.2818C83.0898 105.584 85.3218 106.016 86.9778 106.88C88.6338 107.744 89.8578 108.752 90.6498 109.976C91.4418 111.2 91.9458 112.424 92.1618 113.72C92.3778 115.016 92.4498 116.096 92.4498 116.96C92.3778 119.624 91.9458 121.856 91.1538 123.656C90.3618 125.456 89.3538 126.896 88.1298 127.976C86.9058 129.056 85.5378 129.848 84.0258 130.28C82.5138 130.712 81.0018 130.928 79.4898 130.928L79.9218 131ZM92.8098 81.392C95.4738 81.392 97.3458 82.184 98.4978 83.768C99.6498 85.352 100.226 87.44 100.226 90.032C100.226 93.056 99.6498 95.504 98.4978 97.448C97.3458 99.392 95.9058 100.904 94.2498 101.984C92.5938 103.064 90.7938 103.856 88.9218 104.288C87.0498 104.72 85.3218 104.936 83.8098 104.936H77.1858C77.1858 99.392 77.7618 95.072 78.9138 91.904C80.0658 88.736 81.4338 86.36 83.0898 84.776C84.7458 83.192 86.4738 82.256 88.2738 81.896C90.0738 81.536 91.5858 81.32 92.8098 81.32V81.392ZM102.398 130.28H94.4781L94.0461 131H143.726L144.158 130.28H136.238L164.102 82.04H172.094L172.526 81.32H122.774L122.342 82.04H130.262L102.398 130.28ZM142.934 105.008H124.934L138.182 82.04H156.182L142.934 105.008ZM128.318 130.28H110.318L124.502 105.728H142.502L128.318 130.28ZM174.651 131.72L203.307 82.04H211.299L211.731 81.32H167.163L166.731 82.04H174.651V113.648C171.123 113.648 168.027 114.008 165.435 114.656C162.843 115.304 160.611 116.168 158.739 117.248C156.867 118.328 155.355 119.552 154.131 120.92C152.907 122.288 151.971 123.656 151.323 125.024C150.675 126.392 150.171 127.688 149.883 128.84C149.595 129.992 149.451 131 149.451 131.792C149.451 135.032 150.387 137.408 152.259 138.848C154.131 140.288 156.723 141.008 159.963 141.008C163.275 141.008 166.155 140.144 168.603 138.416C171.051 136.688 173.067 134.528 174.579 131.864L174.651 131.72ZM181.779 117.752V82.184H202.155L181.779 117.752ZM150.315 131.864C150.315 130.64 150.603 129.056 151.179 127.112C151.755 125.168 152.907 123.296 154.635 121.424C156.363 119.552 158.811 117.968 161.979 116.6C165.147 115.232 169.323 114.512 174.435 114.44V130.064C173.355 132.152 172.131 133.88 170.835 135.176C169.539 136.472 168.243 137.48 166.947 138.2C165.651 138.92 164.427 139.424 163.203 139.712C161.979 140 160.827 140.144 159.747 140.144C157.947 140.144 156.435 139.928 155.211 139.496C153.987 139.064 152.979 138.488 152.187 137.696C151.395 136.904 150.819 136.04 150.531 135.032C150.243 134.024 150.099 132.872 150.099 131.648L150.315 131.864ZM204.958 130.28H197.038L196.606 131H220.366L220.798 130.28H212.878L240.742 82.04H249.598V96.512L258.382 81.32H214.246L205.462 96.512L223.462 82.04H232.822L204.958 130.28ZM240.845 130.28H232.925L232.493 131H256.973L257.405 130.28H248.765L260.861 109.328H267.125C271.229 109.328 274.901 108.896 278.141 108.032C281.381 107.168 284.117 106.016 286.349 104.504C288.581 102.992 290.309 101.264 291.461 99.32C292.613 97.376 293.189 95.288 293.189 93.056C293.189 90.968 292.685 89.168 291.749 87.728C290.813 86.288 289.517 85.064 287.861 84.128C286.205 83.192 284.333 82.544 282.245 82.112C280.157 81.68 277.997 81.464 275.765 81.392H261.221L260.789 82.112H268.709L240.845 130.28ZM286.061 93.128C286.061 96.296 285.413 98.888 284.117 100.904C282.821 102.92 281.237 104.504 279.365 105.656C277.493 106.808 275.477 107.6 273.317 108.032C271.157 108.464 269.213 108.68 267.485 108.68H261.293L276.557 82.184C280.229 82.4 282.749 83.48 284.117 85.424C285.485 87.368 286.133 89.96 286.133 93.2L286.061 93.128ZM283.665 130.28H275.745L275.313 131H324.993L325.425 130.28H317.505L345.369 82.04H353.361L353.793 81.32H304.041L303.609 82.04H311.529L283.665 130.28ZM295.689 123.224L319.449 82.04H337.449L334.929 86.432L295.689 123.224ZM309.585 130.28H291.585L294.105 125.888L333.345 89.096L309.585 130.28Z" fill="black"/>
<path fill-rule="evenodd" clip-rule="evenodd" d="M383.06 96.1375C382.538 97.962 382.258 99.8905 382.258 101.885C382.258 104.199 382.635 106.425 383.33 108.502C383.677 103.923 385.486 99.7572 388.286 96.4796C389.391 92.8839 391.462 89.5618 394.434 86.9481C389.595 88.5128 385.574 91.8357 383.06 96.1375ZM382.598 96.9727C382.222 98.5481 382.022 100.193 382.022 101.885C382.022 104.424 382.471 106.857 383.293 109.108C383.277 109.442 383.269 109.777 383.269 110.115C383.269 114.418 384.558 118.416 386.767 121.739C383.03 118.235 380.579 113.324 380.268 107.779L380.034 107.793C380.368 113.767 383.159 119.013 387.362 122.587C391.133 127.693 397.162 131 403.956 131C407.646 131 411.109 130.025 414.108 128.316C420.78 126.435 426.362 121.214 428.431 114.006L428.205 113.94C426.254 120.737 421.143 125.747 414.951 127.809C419.086 125.184 422.237 121.123 423.715 116.319C426.63 112.91 428.314 108.698 428.662 104.357C429.239 107.428 429.132 110.678 428.22 113.887L428.446 113.953C429.453 110.409 429.49 106.815 428.714 103.462C428.885 98.9472 427.612 94.3446 424.779 90.4069L424.588 90.5464C427.21 94.1899 428.48 98.4092 428.494 102.594C427.214 97.9665 424.373 93.8582 420.405 91.0624C417.886 86.872 413.947 83.6478 409.262 82.0695C415.137 82.4275 420.815 85.3304 424.556 90.5023L424.746 90.3623C420.774 84.8716 414.645 81.9092 408.391 81.7977C406.594 81.2805 404.697 81.0026 402.736 81L402.736 81.2374C404.369 81.2395 405.956 81.4348 407.478 81.8017C403.434 81.9093 399.379 83.2129 395.862 85.7994C395.528 86.0447 395.204 86.2983 394.889 86.5595C390.065 87.9765 386.002 91.1072 383.345 95.2233C386.088 87.0968 393.708 81.2491 402.682 81.2374L402.682 81C393.277 81.0123 385.344 87.3601 382.843 96.0428C380.853 99.4594 379.803 103.484 380.031 107.737L380.265 107.725C380.058 103.851 380.923 100.169 382.598 96.9727ZM395.001 86.7739C391.988 89.2869 389.857 92.5166 388.676 96.0363C391.263 93.1757 394.628 91.0442 398.433 89.9825C401.315 88.3487 404.581 87.4084 407.965 87.3108C405.364 86.3094 402.518 85.8309 399.559 85.9961C397.982 86.0841 396.457 86.3502 395.001 86.7739ZM408.581 87.3023C405.808 86.1446 402.742 85.5806 399.546 85.759C398.14 85.8375 396.775 86.0558 395.463 86.4C395.639 86.2614 395.818 86.1251 396 85.9913C399.73 83.2482 404.072 81.9647 408.356 82.0345C413.179 83.4305 417.273 86.5698 419.925 90.7339C418.23 89.6107 416.343 88.7219 414.293 88.1253C412.388 87.5709 410.469 87.3051 408.581 87.3023ZM408.534 87.5398C405.312 87.5426 402.183 88.3202 399.381 89.7423C400.844 89.4088 402.366 89.2318 403.929 89.2298L403.929 89.4672C402.057 89.4696 400.245 89.7259 398.523 90.2038C394.012 92.769 390.458 97.0538 388.911 102.472C388.444 104.107 388.186 105.753 388.121 107.381C388.725 109.994 389.846 112.532 391.51 114.838C394.302 118.707 398.176 121.31 402.407 122.531C402.507 122.532 402.608 122.533 402.709 122.533C410.216 122.533 416.778 118.45 420.335 112.363C420.961 110.185 421.239 107.865 421.108 105.473C420.878 101.277 419.423 97.4426 417.112 94.3052C413.562 91.2914 408.983 89.4737 403.983 89.4672L403.984 89.2298C408.68 89.2359 413.01 90.822 416.479 93.49C414.362 90.8973 411.635 88.8427 408.534 87.5398ZM417.284 94.1414C415.179 91.292 412.377 89.0126 409.147 87.5486C410.83 87.5985 412.535 87.8606 414.228 88.3534C416.431 88.9948 418.445 89.9777 420.23 91.2286C422.09 94.3395 423.161 97.9861 423.161 101.885C423.161 102.032 423.159 102.179 423.156 102.325C421.883 99.1303 419.851 96.3263 417.284 94.1414ZM417.879 94.9907C419.88 98.0013 421.13 101.577 421.343 105.46C421.457 107.552 421.263 109.589 420.799 111.526C422.155 108.938 422.983 106.023 423.135 102.929C422.013 99.8769 420.196 97.1658 417.879 94.9907ZM420.049 113.279C416.456 118.842 410.306 122.569 403.283 122.762C406.691 123.584 410.295 123.523 413.727 122.521C416.613 120.106 418.821 116.911 420.049 113.279ZM414.292 122.346C417.238 119.747 419.437 116.324 420.553 112.458C422.106 109.793 423.089 106.75 423.335 103.498C424.031 105.575 424.408 107.801 424.408 110.115C424.408 112.233 424.092 114.277 423.505 116.201C422.508 117.362 421.365 118.427 420.082 119.371C418.271 120.703 416.316 121.691 414.292 122.346ZM413.267 122.895C409.664 123.843 405.897 123.779 402.372 122.768C398.304 122.702 394.52 121.45 391.347 119.34C393.539 122.795 396.754 125.606 400.71 127.261C401.077 127.26 401.446 127.249 401.816 127.229C406.147 126.987 410.089 125.401 413.267 122.895ZM401.281 127.489C401.463 127.484 401.646 127.476 401.829 127.466C406.407 127.21 410.554 125.471 413.839 122.735C416.072 122.077 418.232 121.025 420.221 119.563C421.368 118.719 422.403 117.779 423.325 116.762C421.699 121.592 418.35 125.619 414.018 128.095C410.495 129.083 406.666 129.13 402.895 128.032C402.345 127.872 401.807 127.691 401.281 127.489ZM400.097 127.253C396.164 125.478 392.993 122.559 390.867 119.012C387.597 116.703 385.019 113.464 383.509 109.675C383.506 109.821 383.505 109.968 383.505 110.115C383.505 114.727 385.003 118.986 387.534 122.423C390.966 125.335 395.348 127.12 400.097 127.253ZM388.165 123.237C391.652 125.917 395.995 127.497 400.664 127.498C401.364 127.789 402.086 128.044 402.83 128.26C406.317 129.275 409.853 129.323 413.157 128.56C410.391 129.969 407.266 130.763 403.956 130.763C397.597 130.763 391.916 127.833 388.165 123.237ZM428.478 103.485C428.305 107.9 426.735 112.229 423.881 115.75C424.378 113.957 424.643 112.067 424.643 110.115C424.643 107.576 424.194 105.143 423.372 102.892C423.388 102.558 423.396 102.223 423.396 101.885C423.396 98.1326 422.416 94.6113 420.7 91.5679C424.628 94.4923 427.374 98.7444 428.478 103.485ZM387.885 107.403C387.096 103.966 387.193 100.4 388.12 97.0479C385.439 100.356 383.755 104.52 383.53 109.071C384.927 112.869 387.399 116.14 390.573 118.506C388.704 115.183 387.734 111.347 387.885 107.403ZM397.589 90.4874C394.027 91.6643 390.896 93.8021 388.496 96.5972C387.525 99.7869 387.323 103.193 387.939 106.504C388.049 105.142 388.295 103.771 388.685 102.406C390.155 97.2576 393.417 93.1208 397.589 90.4874ZM391.042 118.846C394.042 120.953 397.628 122.27 401.504 122.498C397.553 121.173 393.958 118.634 391.32 114.977C389.816 112.893 388.75 110.622 388.105 108.276C388.118 112.051 389.165 115.697 391.042 118.846Z" fill="black"/>
<path fill-rule="evenodd" clip-rule="evenodd" d="M403.001 101.896H408.357V102.236H403.001C403.001 102.236 403.001 102.236 403.001 102.236L402.997 102.236C402.994 102.236 402.988 102.236 402.979 102.237C402.963 102.238 402.937 102.239 402.904 102.243C402.838 102.25 402.741 102.264 402.624 102.292C402.391 102.35 402.078 102.464 401.766 102.694C401.149 103.147 400.496 104.074 400.496 106C400.496 107.926 401.149 108.853 401.766 109.306C402.078 109.536 402.391 109.65 402.624 109.708C402.741 109.736 402.838 109.75 402.904 109.757C402.937 109.761 402.963 109.762 402.979 109.763C402.988 109.764 402.994 109.764 402.997 109.764L403.001 109.764C403.001 109.764 403.001 109.764 403.001 109.764C403.001 109.764 403.001 109.764 403.001 109.764L408.357 109.764V110.104H403.001V109.934C403.001 110.104 403.001 110.104 403 110.104L403 110.104L402.999 110.104L402.997 110.104L402.989 110.104C402.982 110.104 402.973 110.104 402.962 110.103C402.939 110.102 402.907 110.1 402.867 110.096C402.787 110.087 402.674 110.071 402.54 110.038C402.272 109.972 401.914 109.841 401.557 109.579C400.835 109.048 400.148 108.009 400.148 106C400.148 103.991 400.835 102.952 401.557 102.421C401.914 102.159 402.272 102.028 402.54 101.962C402.674 101.929 402.787 101.913 402.867 101.904C402.907 101.9 402.939 101.898 402.962 101.897C402.973 101.896 402.982 101.896 402.989 101.896L402.997 101.896L402.999 101.896L403 101.896L403 101.896C403.001 101.896 403.001 101.896 403.001 102.066V101.896Z" fill="black"/>
</svg>
