<svg width="291" height="139" viewBox="0 0 291 139" fill="none" xmlns="http://www.w3.org/2000/svg">
<path fill-rule="evenodd" clip-rule="evenodd" d="M38.3023 16.8618H44.9276C42.9607 6.86586 34.3686 0 23.1884 0C9.60146 0 0 10.1979 0 26.5547C0 42.9116 9.52381 53.1094 23.6025 53.1094C36.2319 53.1094 45.2381 44.9057 45.2381 32.1079V26.5547H25.0518V32.1079H39.0269C38.8458 41.397 32.5829 47.2532 23.6025 47.2532C13.7681 47.2532 6.21118 39.9835 6.21118 26.5547C6.21118 13.1259 13.7681 5.85617 23.1884 5.85617C30.8489 5.85617 36.0508 10.0716 38.3023 16.8618ZM100.951 26.5547C100.951 10.1979 91.1168 0 77.5557 0C63.9946 0 54.1602 10.1979 54.1602 26.5547C54.1602 42.9116 63.9946 53.1094 77.5557 53.1094C91.1168 53.1094 100.951 42.9116 100.951 26.5547ZM94.7399 26.5547C94.7399 39.9835 87.183 47.2532 77.5557 47.2532C67.9284 47.2532 60.3714 39.9835 60.3714 26.5547C60.3714 13.1259 67.9284 5.85617 77.5557 5.85617C87.183 5.85617 94.7399 13.1259 94.7399 26.5547ZM21.2215 138.293H2.07039V86.5972H20.6004C31.6771 86.5972 36.853 92.7564 36.853 100.329C36.853 106.992 32.8158 109.921 28.2609 111.133V111.637C33.1263 111.941 38.9235 116.383 38.9235 124.562C38.9235 132.336 33.7474 138.293 21.2215 138.293ZM8.48861 114.767V132.74H21.2215C29.6066 132.74 32.8158 129.105 32.8158 124.562C32.8158 119.311 28.4679 114.767 21.5321 114.767H8.48861ZM8.48861 92.1505V109.315H20.3933C26.1905 109.315 30.7454 105.781 30.7454 100.329C30.7454 95.7853 27.6397 92.1505 20.6004 92.1505H8.48861ZM49.4695 138.293H81.8712V132.74H55.8877V115.171H79.8008V109.618H55.8877V92.1505H81.4571V86.5972H49.4695V138.293ZM107.622 116.988L88.4705 86.5972H95.8205L110.52 110.728H111.141L125.841 86.5972H133.191L114.04 116.988V138.293H107.622V116.988ZM183.722 112.445C183.722 96.0883 173.887 85.8905 160.326 85.8905C146.766 85.8905 136.931 96.0883 136.931 112.445C136.931 128.802 146.766 139 160.326 139C173.887 139 183.722 128.802 183.722 112.445ZM177.511 112.445C177.511 125.874 169.954 133.144 160.326 133.144C150.699 133.144 143.142 125.874 143.142 112.445C143.142 99.0165 150.699 91.7466 160.326 91.7466C169.954 91.7466 177.511 99.0165 177.511 112.445ZM230.228 86.5972H236.543V138.293H230.331L201.449 97.7038H200.932V138.293H194.514V86.5972H200.725L229.711 127.287H230.228V86.5972ZM265.742 138.293C281.89 138.293 291 128.499 291 112.344C291 96.2902 281.89 86.5972 266.466 86.5972H249.386V138.293H265.742ZM255.804 132.74V92.1505H266.052C278.474 92.1505 284.789 99.8241 284.789 112.344C284.789 124.965 278.474 132.74 265.328 132.74H255.804ZM126.41 16.608C125.86 18.4813 125.565 20.4615 125.565 22.5093C125.565 24.8854 125.962 27.1702 126.694 29.303C127.059 24.6017 128.963 20.3245 131.912 16.9592C133.074 13.2675 135.255 9.85656 138.384 7.17292C133.289 8.77949 129.056 12.1912 126.41 16.608ZM125.923 17.4657C125.528 19.0832 125.317 20.7721 125.317 22.5093C125.317 25.1162 125.79 27.6146 126.655 29.9257C126.638 30.2682 126.63 30.6126 126.63 30.9592C126.63 35.3769 127.987 39.4828 130.312 42.8945C126.379 39.2967 123.798 34.2543 123.471 28.5609L123.224 28.5747C123.576 34.7084 126.515 40.095 130.938 43.7649C134.908 49.0076 141.255 52.4027 148.406 52.4027C152.29 52.4027 155.937 51.4016 159.094 49.6472C166.118 47.7154 171.993 42.3552 174.171 34.954L173.933 34.8861C171.879 41.8658 166.499 47.0092 159.981 49.1264C164.334 46.4316 167.65 42.2617 169.207 37.3287C172.275 33.8292 174.047 29.5042 174.414 25.0473C175.022 28.2005 174.909 31.5375 173.949 34.8323L174.187 34.8996C175.248 31.2608 175.286 27.5711 174.469 24.1282C174.648 19.4929 173.308 14.7672 170.326 10.7242L170.126 10.8674C172.885 14.6084 174.222 18.9405 174.237 23.2373C172.89 18.4859 169.899 14.2678 165.722 11.3973C163.07 7.09484 158.924 3.78441 153.992 2.16392C160.177 2.53149 166.154 5.51198 170.093 10.8222L170.292 10.6783C166.111 5.04093 159.659 1.99934 153.076 1.8848C151.184 1.35385 149.187 1.06845 147.123 1.06582V1.30959C148.841 1.31177 150.512 1.51221 152.114 1.88891C147.857 1.9994 143.588 3.33787 139.886 5.99358C139.534 6.24545 139.193 6.50573 138.862 6.77393C133.784 8.22885 129.507 11.4433 126.71 15.6694C129.597 7.32565 137.618 1.32162 147.065 1.30959V1.06582C137.166 1.07843 128.813 7.59598 126.181 16.5108C124.086 20.0188 122.981 24.1515 123.221 28.5182L123.468 28.505C123.25 24.5282 124.16 20.7479 125.923 17.4657ZM138.98 6.99415C135.808 9.57431 133.566 12.8904 132.322 16.5042C135.045 13.5671 138.587 11.3786 142.592 10.2885C145.626 8.61099 149.065 7.64557 152.627 7.54532C149.889 6.51718 146.892 6.02592 143.778 6.19547C142.118 6.28581 140.512 6.55902 138.98 6.99415ZM153.276 7.53665C150.357 6.34802 147.128 5.76894 143.763 5.95207C142.285 6.03261 140.847 6.25682 139.466 6.6102C139.652 6.46786 139.84 6.32798 140.031 6.19061C143.959 3.37416 148.529 2.05627 153.038 2.128C158.116 3.56129 162.425 6.78456 165.217 11.0599C163.433 9.90672 161.445 8.9942 159.288 8.38162C157.283 7.81237 155.263 7.53948 153.276 7.53665ZM153.226 7.78047C149.835 7.78334 146.541 8.58172 143.59 10.0419C145.131 9.69939 146.733 9.51774 148.378 9.51567V9.75942C146.408 9.76189 144.499 10.0251 142.687 10.5157C137.939 13.1495 134.197 17.5488 132.569 23.1122C132.077 24.7908 131.805 26.4807 131.738 28.1517C132.373 30.8354 133.553 33.4406 135.305 35.8081C138.244 39.7809 142.322 42.4532 146.776 43.7068C146.882 43.7084 146.988 43.7091 147.094 43.7091C154.997 43.7091 161.904 39.5167 165.649 33.2675C166.307 31.0313 166.599 28.6494 166.462 26.1928C166.22 21.8846 164.688 17.948 162.255 14.7268C158.518 11.6323 153.698 9.76613 148.436 9.75942V9.51567C153.379 9.52189 157.937 11.1504 161.589 13.8898C159.361 11.2277 156.49 9.1182 153.226 7.78047ZM162.436 14.5585C160.222 11.633 157.271 9.29265 153.871 7.78952C155.643 7.8407 157.437 8.10986 159.22 8.61583C161.538 9.27438 163.659 10.2835 165.538 11.5679C167.496 14.762 168.623 18.5061 168.623 22.5093C168.623 22.6604 168.622 22.811 168.618 22.9613C167.279 19.6809 165.139 16.8019 162.436 14.5585ZM163.064 15.4307C165.169 18.5216 166.485 22.1932 166.709 26.1794C166.829 28.3276 166.625 30.4193 166.137 32.4082C167.565 29.7504 168.436 26.7576 168.597 23.5808C167.414 20.4475 165.502 17.6638 163.064 15.4307ZM165.347 34.2074C161.565 39.9197 155.091 43.7467 147.698 43.9448C151.286 44.7883 155.08 44.7255 158.692 43.6965C161.73 41.2171 164.055 37.9374 165.347 34.2074ZM159.287 43.5177C162.389 40.8485 164.703 37.3344 165.878 33.3648C167.512 30.6287 168.548 27.5041 168.807 24.1655C169.539 26.2983 169.936 28.5831 169.936 30.9592C169.936 33.1341 169.604 35.2325 168.985 37.2077C167.936 38.3995 166.733 39.4938 165.383 40.4623C163.476 41.83 161.417 42.8443 159.287 43.5177ZM158.207 44.0806C154.416 45.054 150.449 44.9883 146.739 43.95C142.457 43.8827 138.474 42.5978 135.132 40.4314C137.441 43.9783 140.825 46.8643 144.99 48.5633C145.376 48.5625 145.764 48.5516 146.154 48.5304C150.713 48.2822 154.863 46.6542 158.207 44.0806ZM145.59 48.7977C145.783 48.7923 145.975 48.7843 146.167 48.7737C150.986 48.5114 155.353 46.7254 158.811 43.9166C161.161 43.2411 163.435 42.1608 165.529 40.6594C166.735 39.7935 167.825 38.8284 168.796 37.7837C167.084 42.7432 163.559 46.8775 158.998 49.4203C155.29 50.4346 151.26 50.4826 147.29 49.3556C146.711 49.1911 146.144 49.0047 145.59 48.7977ZM144.344 48.5551C140.205 46.7334 136.866 43.7358 134.627 40.0937C131.186 37.723 128.471 34.3973 126.883 30.5071C126.879 30.6575 126.878 30.8081 126.878 30.9592C126.878 35.6948 128.455 40.0677 131.119 43.5967C134.733 46.5861 139.345 48.4184 144.344 48.5551ZM131.784 44.432C135.455 47.1837 140.026 48.8058 144.941 48.807C145.677 49.1055 146.439 49.3675 147.221 49.5898C150.892 50.632 154.614 50.6808 158.092 49.8975C155.181 51.3441 151.89 52.1589 148.406 52.1589C141.713 52.1589 135.733 49.1506 131.784 44.432ZM166.033 11.9163C170.167 14.9189 173.058 19.2847 174.22 24.1519C174.038 28.6854 172.386 33.1298 169.381 36.7448C169.904 34.9043 170.184 32.9639 170.184 30.9592C170.184 28.3521 169.711 25.8539 168.846 23.5427C168.863 23.2003 168.871 22.8557 168.871 22.5093C168.871 18.6566 167.838 15.0411 166.033 11.9163ZM131.489 28.175C130.659 24.6461 130.76 20.9843 131.737 17.5428C128.915 20.9394 127.141 25.2143 126.904 29.8877C128.375 33.7874 130.977 37.1454 134.319 39.5748C132.351 36.1625 131.33 32.2239 131.489 28.175ZM141.705 10.8069C137.954 12.0153 134.659 14.2101 132.132 17.0801C131.11 20.355 130.897 23.8518 131.545 27.2521C131.662 25.8533 131.921 24.4451 132.331 23.0446C133.878 17.7581 137.313 13.5107 141.705 10.8069ZM134.813 39.9233C137.971 42.0873 141.745 43.4394 145.825 43.6729C141.666 42.3126 137.883 39.7063 135.105 35.9517C133.522 33.8117 132.399 31.4799 131.72 29.0712C131.734 32.9467 132.836 36.6902 134.813 39.9233ZM153.04 22.5201H147.401V22.6948C147.401 22.5201 147.401 22.5201 147.401 22.5201H147.4H147.399H147.397L147.389 22.5202C147.382 22.5204 147.372 22.5207 147.361 22.5213C147.336 22.5223 147.303 22.5246 147.261 22.529C147.176 22.5376 147.057 22.5546 146.916 22.5884C146.634 22.6558 146.257 22.7906 145.882 23.0599C145.121 23.6047 144.399 24.6719 144.399 26.7342C144.399 28.7966 145.121 29.8639 145.882 30.4086C146.257 30.6779 146.634 30.8127 146.916 30.8802C147.057 30.9139 147.176 30.9309 147.261 30.9396C147.303 30.944 147.336 30.9461 147.361 30.9473C147.367 30.9476 147.374 30.9478 147.379 30.948C147.382 30.9481 147.386 30.9482 147.389 30.9483L147.397 30.9485H147.399H147.4H147.401C147.401 30.9485 147.401 30.9485 147.401 30.7737V30.9485H153.04V30.5989H147.401L147.397 30.5988L147.379 30.5981C147.361 30.5972 147.334 30.5956 147.299 30.592C147.229 30.5848 147.128 30.5704 147.005 30.541C146.758 30.4822 146.43 30.3645 146.102 30.1289C145.452 29.6638 144.764 28.7113 144.764 26.7342C144.764 24.7572 145.452 23.8048 146.102 23.3396C146.43 23.104 146.758 22.9863 147.005 22.9275C147.128 22.8982 147.229 22.8837 147.299 22.8766C147.334 22.8729 147.361 22.8712 147.379 22.8705L147.397 22.8698L147.401 22.8697H153.04V22.5201Z" fill="white"/>
</svg>
