<svg width="59" height="59" viewBox="0 0 59 59" fill="none" xmlns="http://www.w3.org/2000/svg">
<path fill-rule="evenodd" clip-rule="evenodd" d="M3.61125 17.8622C2.99445 20.0152 2.6639 22.2908 2.6639 24.6444C2.6639 27.3752 3.10889 30.0011 3.92966 32.4521C4.33845 27.0491 6.4729 22.1335 9.77769 18.2659C11.0808 14.023 13.5257 10.103 17.0325 7.01872C11.3225 8.8651 6.57695 12.7861 3.61125 17.8622ZM3.06546 18.8478C2.62157 20.7068 2.38641 22.6479 2.38641 24.6444C2.38641 27.6405 2.91598 30.5118 3.88578 33.1679C3.86728 33.5614 3.85793 33.9574 3.85793 34.3555C3.85793 39.4328 5.37873 44.1515 7.98552 48.0725C3.57598 43.9377 0.683382 38.1426 0.316724 31.5994L0.039674 31.6152C0.434689 38.6645 3.72814 44.8553 8.68685 49.0729C13.137 55.0982 20.2514 59 28.2683 59C32.6217 59 36.7089 57.8495 40.2479 55.8331C48.1209 53.6131 54.7074 47.4528 57.1486 38.9467L56.882 38.8688C54.5799 46.8902 48.5491 52.8015 41.2424 55.2347C46.122 52.1376 49.8394 47.3452 51.5838 41.6758C55.023 37.6541 57.01 32.6834 57.4208 27.5613C58.1022 31.1851 57.9759 35.0203 56.8997 38.8069L57.1664 38.8842C58.355 34.7022 58.3981 30.4618 57.4831 26.505C57.684 21.1777 56.182 15.7466 52.8387 11.1001L52.6142 11.2647C55.7077 15.5641 57.2066 20.5429 57.2232 25.481C55.7128 20.0204 52.3605 15.1727 47.6782 11.8737C44.7049 6.92898 40.0571 3.1244 34.5291 1.262C41.462 1.68445 48.1616 5.10984 52.5767 11.2127L52.8008 11.0475C48.1136 4.56848 40.8808 1.07287 33.5016 0.941232C31.3811 0.331026 29.1428 0.00302002 26.829 0L26.8287 0.280154C28.7549 0.282668 30.6283 0.513021 32.4237 0.945951C27.6517 1.07294 22.8671 2.61121 18.7167 5.66333C18.3231 5.9528 17.9405 6.25194 17.5692 6.56017C11.8771 8.23227 7.08256 11.9265 3.94757 16.7835C7.18331 7.19425 16.175 0.293978 26.7649 0.280154L26.7646 0C15.6674 0.0144862 6.30533 7.50492 3.35433 17.7505C1.00658 21.7821 -0.232209 26.5317 0.036115 31.5502L0.313205 31.5351C0.0688411 26.9647 1.08882 22.62 3.06546 18.8478ZM17.7013 6.81326C14.1457 9.77852 11.6316 13.5896 10.2375 17.7429C13.2904 14.3674 17.2609 11.8521 21.7505 10.5994C25.1514 8.67146 29.0061 7.56193 32.9992 7.4467C29.93 6.2651 26.5707 5.7005 23.0791 5.89536C21.2185 5.99919 19.4188 6.31318 17.7013 6.81326ZM33.7259 7.43675C30.454 6.07068 26.8353 5.40516 23.0638 5.61563C21.4051 5.70819 19.7943 5.96587 18.2461 6.372C18.4541 6.20841 18.6654 6.04764 18.8801 5.88978C23.2817 2.65291 28.4048 1.13829 33.4602 1.22074C39.1517 2.86796 43.982 6.57238 47.111 11.486C45.1118 10.1607 42.8843 9.1119 40.4658 8.40784C38.2184 7.75362 35.9538 7.43999 33.7259 7.43675ZM33.6706 7.71696C29.8685 7.72026 26.1762 8.63781 22.8695 10.3159C24.5961 9.92235 26.3922 9.71353 28.2361 9.71112L28.2364 9.99128C26.0278 9.99416 23.8886 10.2966 21.8567 10.8605C16.5346 13.8874 12.3406 18.9435 10.5145 25.3373C9.9635 27.2666 9.65922 29.2086 9.58285 31.1291C10.2953 34.2133 11.6189 37.2074 13.582 39.9284C16.8761 44.4942 21.4474 47.5654 26.4401 49.0061C26.5588 49.0079 26.6777 49.0087 26.7968 49.0087C35.6548 49.0087 43.3981 44.1906 47.5959 37.0085C48.3338 34.4385 48.6617 31.701 48.5072 28.8778C48.2361 23.9264 46.5187 19.4023 43.7918 15.7001C39.6031 12.1438 34.1997 9.99898 28.3002 9.99128L28.3006 9.71112C33.8424 9.71835 38.9515 11.59 43.0455 14.7382C40.5472 11.6788 37.3294 9.25442 33.6706 7.71696ZM43.9952 15.5068C41.5118 12.1446 38.2043 9.45484 34.3935 7.72735C36.3799 7.78618 38.3913 8.09551 40.3889 8.67702C42.9888 9.43388 45.3654 10.5936 47.4713 12.0697C49.6666 15.7406 50.9297 20.0436 50.9297 24.6444C50.9297 24.818 50.9279 24.9912 50.9243 25.1639C49.4223 21.3938 47.0238 18.0851 43.9952 15.5068ZM44.6977 16.5091C47.0585 20.0615 48.5334 24.2811 48.7842 28.8623C48.9194 31.3312 48.6898 33.7352 48.1428 36.021C49.7433 32.9664 50.7194 29.5269 50.8994 25.8758C49.5751 22.2748 47.4317 19.0756 44.6977 16.5091ZM47.2584 38.0887C43.0177 44.6537 35.7612 49.0519 27.4734 49.2796C31.4956 50.2491 35.7482 50.1769 39.7979 48.9943C43.2031 46.1447 45.8087 42.3755 47.2584 38.0887ZM40.4651 48.7888C43.9408 45.7211 46.5357 41.6825 47.8527 37.1204C49.6846 33.9758 50.8452 30.3847 51.1355 26.5479C51.9562 28.9989 52.4012 31.6248 52.4012 34.3555C52.4012 36.8551 52.0284 39.2668 51.3358 41.5369C50.1589 42.9066 48.811 44.1642 47.2973 45.2773C45.1599 46.8491 42.8524 48.0148 40.4651 48.7888ZM39.2547 49.4356C35.004 50.5544 30.5579 50.4789 26.3992 49.2857C21.5982 49.2083 17.1338 47.7315 13.3889 45.2417C15.9764 49.3181 19.7699 52.635 24.4384 54.5874C24.871 54.5866 25.3059 54.5741 25.743 54.5497C30.854 54.2645 35.5054 52.3934 39.2547 49.4356ZM25.1112 54.857C25.3264 54.8507 25.5421 54.8415 25.7583 54.8294C31.1601 54.528 36.0543 52.4753 39.9304 49.2472C42.5653 48.4709 45.1143 47.2293 47.4607 45.5038C48.8139 44.5087 50.036 43.3995 51.1235 42.1988C49.205 47.8987 45.2534 52.6501 40.1408 55.5724C35.984 56.7382 31.466 56.7933 27.0165 55.4981C26.3672 55.3091 25.7319 55.0949 25.1112 54.857ZM23.7149 54.578C19.0741 52.4845 15.332 49.0394 12.8225 44.8536C8.96411 42.1291 5.92207 38.307 4.1408 33.8361C4.13722 34.0088 4.13542 34.182 4.13542 34.3555C4.13542 39.7981 5.903 44.8238 8.89022 48.8795C12.9404 52.3152 18.1103 54.4211 23.7149 54.578ZM9.63482 49.8396C13.7499 53.002 18.8743 54.8663 24.3834 54.8676C25.2091 55.2108 26.0618 55.5117 26.9397 55.7673C31.0543 56.9651 35.227 57.0212 39.1254 56.1209C35.8618 57.7834 32.1734 58.7198 28.2683 58.7198C20.7648 58.7198 14.061 55.2625 9.63482 49.8396ZM57.2043 26.5321C56.9998 31.7425 55.1475 36.8503 51.7799 41.0049C52.3656 38.8897 52.6787 36.6595 52.6787 34.3555C52.6787 31.3594 52.1491 28.4882 51.1793 25.8321C51.1978 25.4385 51.2072 25.0426 51.2072 24.6444C51.2072 20.2165 50.0505 16.0614 48.0256 12.4701C52.6615 15.9209 55.9017 20.9384 57.2043 26.5321ZM9.30403 31.1558C8.37377 27.1002 8.48748 22.8917 9.58195 18.9365C6.41807 22.8401 4.43052 27.7532 4.16571 33.1242C5.81392 37.606 8.73094 41.4653 12.4762 44.2573C10.2707 40.3357 9.12611 35.8091 9.30403 31.1558ZM20.7553 11.1951C16.5522 12.5839 12.8575 15.1064 10.0257 18.4047C8.87938 22.1685 8.641 26.1873 9.36744 30.0952C9.49827 28.4876 9.78819 26.8692 10.2479 25.2597C11.9831 19.184 15.8322 14.3025 20.7553 11.1951ZM13.0296 44.6578C16.57 47.1448 20.8015 48.6988 25.3748 48.9671C20.712 47.4037 16.471 44.4085 13.3577 40.0933C11.5833 37.634 10.3255 34.9541 9.56372 32.1857C9.57951 36.6398 10.8142 40.9422 13.0296 44.6578Z" fill="black"/>
<path fill-rule="evenodd" clip-rule="evenodd" d="M27.1417 24.6567H33.4627V25.0585H27.1422C27.1421 25.0585 27.142 25.0585 27.1419 25.0585L27.1376 25.0586C27.1334 25.0587 27.1263 25.0589 27.1165 25.0594C27.097 25.0604 27.0669 25.0623 27.0278 25.0664C26.9495 25.0747 26.8355 25.0913 26.6977 25.1251C26.4218 25.1926 26.0533 25.3279 25.6846 25.5986C24.9567 26.1332 24.1864 27.2278 24.1864 29.5C24.1864 31.7722 24.9567 32.8668 25.6846 33.4014C26.0533 33.6722 26.4218 33.8074 26.6977 33.875C26.8355 33.9087 26.9495 33.9254 27.0278 33.9336C27.0669 33.9377 27.097 33.9397 27.1165 33.9406C27.1263 33.9411 27.1334 33.9413 27.1376 33.9414L27.1419 33.9415C27.142 33.9415 27.1421 33.9415 27.1422 33.9415C27.1423 33.9415 27.1424 33.9415 27.1424 33.9415L33.4627 33.9415V34.3433H27.1417V34.1424C27.1417 34.3433 27.1416 34.3433 27.1414 34.3433L27.141 34.3433L27.14 34.3433L27.137 34.3433L27.1277 34.3431C27.12 34.3429 27.1094 34.3426 27.096 34.3419C27.0692 34.3406 27.0314 34.3381 26.9841 34.3331C26.8895 34.3232 26.7566 34.3036 26.5982 34.2648C26.2814 34.1872 25.8599 34.0324 25.4384 33.7228C24.586 33.0968 23.7761 31.8702 23.7761 29.5C23.7761 27.1298 24.586 25.9032 25.4384 25.2772C25.8599 24.9677 26.2814 24.8128 26.5982 24.7353C26.7566 24.6965 26.8895 24.6769 26.9841 24.6669C27.0314 24.662 27.0692 24.6594 27.096 24.6581C27.1094 24.6575 27.12 24.6571 27.1277 24.6569L27.137 24.6568L27.14 24.6567L27.141 24.6567L27.1414 24.6567C27.1416 24.6567 27.1417 24.6567 27.1417 24.8576V24.6567Z" fill="black"/>
</svg>
